<?xml version="1.0" encoding="UTF-8"?>
<!DOCTYPE svg PUBLIC "-//W3C//DTD SVG 1.1//EN" "http://www.w3.org/Graphics/SVG/1.1/DTD/svg11.dtd">
<svg xmlns="http://www.w3.org/2000/svg" version="1.1" width="512px" height="512px" style="shape-rendering:geometricPrecision; text-rendering:geometricPrecision; image-rendering:optimizeQuality; fill-rule:evenodd; clip-rule:evenodd" xmlns:xlink="http://www.w3.org/1999/xlink">
<g><path style="opacity:0.995" fill="#10aea4" d="M 255.5,154.5 C 255.5,155.167 255.5,155.833 255.5,156.5C 220.833,190.5 186.5,224.833 152.5,259.5C 126.833,284.833 101.167,310.167 75.5,335.5C 50.1667,310.5 24.8333,285.5 -0.5,260.5C -0.5,259.833 -0.5,259.167 -0.5,258.5C 59.8394,198.827 119.839,138.827 179.5,78.5C 204.494,104.161 229.827,129.494 255.5,154.5 Z"/></g>
<g><path style="opacity:0.994" fill="#f47f09" d="M 435.5,183.5 C 409.833,208.833 384.167,234.167 358.5,259.5C 324.5,224.833 290.167,190.5 255.5,156.5C 255.5,155.833 255.5,155.167 255.5,154.5C 281.132,129.368 306.632,104.035 332,78.5C 367.064,113.063 401.564,148.063 435.5,183.5 Z"/></g>
<g><path style="opacity:0.993" fill="#fe9e3e" d="M 435.5,183.5 C 460.833,208.5 486.167,233.5 511.5,258.5C 511.5,259.167 511.5,259.833 511.5,260.5C 451.174,319.993 391.34,379.993 332,440.5C 306.632,414.965 281.132,389.632 255.5,364.5C 255.5,363.833 255.5,363.167 255.5,362.5C 290.167,328.5 324.5,294.167 358.5,259.5C 384.167,234.167 409.833,208.833 435.5,183.5 Z"/></g>
<g><path style="opacity:0.996" fill="#0f9f94" d="M 152.5,259.5 C 186.5,294.167 220.833,328.5 255.5,362.5C 255.5,363.167 255.5,363.833 255.5,364.5C 229.827,389.506 204.494,414.839 179.5,440.5C 144.117,406.117 109.45,371.117 75.5,335.5C 101.167,310.167 126.833,284.833 152.5,259.5 Z"/></g>
</svg>
